<svg id="Capa_1" data-name="Capa 1" xmlns="http://www.w3.org/2000/svg" viewBox="0 0 30.7 40.3"><defs><style>.cls-1{fill:#11364a;}</style></defs><path class="cls-1" d="M16,1.4,3,14.4l1.4,1.4L15,5.2V25.1h2V5.3L27.6,15.9,29,14.5Z" transform="translate(-0.7 -1.4)"/><path class="cls-1" d="M5.1,38a10.87,10.87,0,0,0-1.4-.5,4,4,0,0,1-1.2-.4.71.71,0,0,1-.3-.6.75.75,0,0,1,.4-.7,1.69,1.69,0,0,1,1-.3,1.49,1.49,0,0,1,1,.3,1.23,1.23,0,0,1,.4.8H6.2a1.8,1.8,0,0,0-.7-1.5,2.88,2.88,0,0,0-1.9-.6,2.79,2.79,0,0,0-1.8.6,1.58,1.58,0,0,0-.5,2.3A1.44,1.44,0,0,0,2,38a7.17,7.17,0,0,0,1.4.5,3.2,3.2,0,0,1,1.3.5c.3.2.3.4.3.7a.75.75,0,0,1-.4.7,1.8,1.8,0,0,1-1.1.3,2.13,2.13,0,0,1-1.2-.3,1.05,1.05,0,0,1-.5-.9H.7a1.5,1.5,0,0,0,.4,1.1,2.72,2.72,0,0,0,1,.8,3.34,3.34,0,0,0,1.5.3,2.88,2.88,0,0,0,1.9-.6,1.8,1.8,0,0,0,.7-1.5,1.22,1.22,0,0,0-.3-.9A2.85,2.85,0,0,0,5.1,38Z" transform="translate(-0.7 -1.4)"/><path class="cls-1" d="M12.6,39.6a1.73,1.73,0,0,1-1.8,1c-.8,0-1.3-.5-1.3-1.6V34.6H8.4v4.5A2.71,2.71,0,0,0,9,41a2.2,2.2,0,0,0,1.7.6,2.48,2.48,0,0,0,2-.8v.7h1.1V34.6H12.6Z" transform="translate(-0.7 -1.4)"/><path class="cls-1" d="M19.3,34.5a2.52,2.52,0,0,0-2,.9V31.8H16.1v9.8h1.1l.1-.8a2.38,2.38,0,0,0,2,.9,2.06,2.06,0,0,0,1.9-1,4.9,4.9,0,0,0,.7-2.5V38a4,4,0,0,0-.7-2.6A2.08,2.08,0,0,0,19.3,34.5ZM20.4,40a1.71,1.71,0,0,1-1.3.7,1.85,1.85,0,0,1-1.7-1.1v-3a1.75,1.75,0,0,1,1.7-1.1,1.36,1.36,0,0,1,1.3.7,3.31,3.31,0,0,1,.5,1.9A4.78,4.78,0,0,1,20.4,40Z" transform="translate(-0.7 -1.4)"/><path class="cls-1" d="M24.8,32.1a.68.68,0,0,0-.7.7c0,.2.1.3.2.5a.71.71,0,0,0,1-1A.59.59,0,0,0,24.8,32.1Z" transform="translate(-0.7 -1.4)"/><rect class="cls-1" x="23.5" y="33.2" width="1.2" height="6.9"/><path class="cls-1" d="M30.7,34.5a1.7,1.7,0,0,0-1.6.9v-.8H28v6.9h1.2V36.6a1.54,1.54,0,0,1,1.6-1h.6V34.5Z" transform="translate(-0.7 -1.4)"/></svg>