<svg xmlns="http://www.w3.org/2000/svg" viewBox="0 0 28.68 28.68"><defs><style>.cls-1{fill:#11364a;}</style></defs><g id="Capa_1" data-name="Capa 1"><path class="cls-1" d="M38.9,3.31H23.77A6.78,6.78,0,0,0,17,10.08V25.22A6.78,6.78,0,0,0,23.77,32H38.9a6.78,6.78,0,0,0,6.78-6.77V10.08A6.78,6.78,0,0,0,38.9,3.31ZM44,25.22a5.14,5.14,0,0,1-5.14,5.13H23.77a5.14,5.14,0,0,1-5.14-5.13V10.08A5.14,5.14,0,0,1,23.77,5H38.9A5.14,5.14,0,0,1,44,10.08Z" transform="translate(-16.99 -3.31)"/><path class="cls-1" d="M30,11.46a.83.83,0,0,0-.78-.55h-1.4a.82.82,0,0,0-.78.56l-3.6,11A.82.82,0,0,0,25,23l1-3.06h5.19L32.22,23a.83.83,0,0,0,.78.55.65.65,0,0,0,.27,0,.81.81,0,0,0,.5-1ZM26.5,18.3l1.88-5.75h.23l2,5.75Z" transform="translate(-16.99 -3.31)"/><path class="cls-1" d="M37.21,13.68a.82.82,0,0,0-.82.82v8.24a.82.82,0,0,0,1.64,0V14.5A.82.82,0,0,0,37.21,13.68Z" transform="translate(-16.99 -3.31)"/><circle class="cls-1" cx="37.21" cy="11.83" r="1.03" transform="translate(-18.41 2.81) rotate(-9.22)"/></g></svg>