<svg xmlns="http://www.w3.org/2000/svg" viewBox="0 0 31.52 28.51"><defs><style>.cls-1{fill:#11364a;}</style></defs><g id="Capa_1" data-name="Capa 1"><path class="cls-1" d="M45.1,16.91h0c-1.54-.07-2.19-4.45-2.26-6.58V8.2a4.59,4.59,0,0,0-4.32-4.81h-17A4.59,4.59,0,0,0,17.19,8.2v2.36c-.17,3-.94,6.29-2.25,6.35h0a.71.71,0,0,0-.66.74h0a.71.71,0,0,0,.66.74h0c1.31.06,2.08,3.32,2.25,6.34v2.36a4.59,4.59,0,0,0,4.32,4.81h17a4.59,4.59,0,0,0,4.32-4.81V25c.07-2.13.72-6.51,2.26-6.58h0a.71.71,0,0,0,.66-.74h0A.71.71,0,0,0,45.1,16.91Zm-3.62,8v2.17a3.18,3.18,0,0,1-3,3.34h-17a3.18,3.18,0,0,1-3-3.34V24.67a22,22,0,0,0-.61-4.13,6.54,6.54,0,0,0-1.38-2.89,6.54,6.54,0,0,0,1.38-2.89,22,22,0,0,0,.61-4.13V8.2a3.19,3.19,0,0,1,3-3.34h17a3.19,3.19,0,0,1,3,3.34v2.17c0,.66.24,5.43,2,7.28C41.72,19.5,41.5,24.27,41.48,24.92Z" transform="translate(-14.24 -3.39)"/><path class="cls-1" d="M33,17.47a3.79,3.79,0,0,0,.77-.64,4.81,4.81,0,0,0,1.2-3.4A4.12,4.12,0,0,0,33.56,10a5.58,5.58,0,0,0-3.55-1S26.75,9,25.2,9a.7.7,0,0,0-.66.74v7.82h0v8a.69.69,0,0,0,.66.73h5.28c1.85,0,5-.94,5-4.49A4.58,4.58,0,0,0,33,17.47Zm-7.13-7,4.14,0c3.2,0,3.64,1.4,3.64,2.91a3.26,3.26,0,0,1-.78,2.33,4,4,0,0,1-2.74,1.07H25.86Zm4.62,14.33H25.86V18.3h4.26c1.3,0,4,.44,4,3.49S30.85,24.81,30.48,24.81Z" transform="translate(-14.24 -3.39)"/></g></svg>