<svg id="Capa_1" data-name="Capa 1" xmlns="http://www.w3.org/2000/svg" viewBox="0 0 25.54 35.3"><defs><style>.cls-1{fill:#11364a;}</style></defs><path class="cls-1" d="M22.94,15.16H35.42L35,19.86H23.67a.68.68,0,0,0-.69.68.69.69,0,0,0,.69.69H34.92l-.44,5.42-4.62,1.82-4.71-1.25-.29-2.15a.69.69,0,1,0-1.36.18l.35,2.61a.67.67,0,0,0,.5.57l5.38,1.43.17,0a.7.7,0,0,0,.25-.05l5.23-2.06a.67.67,0,0,0,.44-.58l1-12.66a.73.73,0,0,0-.18-.53.7.7,0,0,0-.51-.22H22.94a.69.69,0,0,0,0,1.38Z" transform="translate(-17.04 0)"/><path class="cls-1" d="M19.31,6.5h4.18a.67.67,0,0,0,.68-.68.68.68,0,0,0-.68-.69H20V1.37h3.54a.67.67,0,0,0,.68-.68A.68.68,0,0,0,23.54,0H19.31a.69.69,0,0,0-.69.69V5.82A.68.68,0,0,0,19.31,6.5Z" transform="translate(-17.04 0)"/><path class="cls-1" d="M26.63,5.82a.67.67,0,0,0,.68.68h4.15A.68.68,0,0,0,32,5.38l-3.24-4h2.71a.67.67,0,0,0,.68-.68A.68.68,0,0,0,31.46,0H27.31a.7.7,0,0,0-.62.39.69.69,0,0,0,.09.73l3.24,4H27.31A.68.68,0,0,0,26.63,5.82Z" transform="translate(-17.04 0)"/><path class="cls-1" d="M34.7,5.82a.68.68,0,0,0,.69.68h4.14a.67.67,0,0,0,.62-.39.69.69,0,0,0-.08-.73l-3.24-4h2.7a.68.68,0,0,0,.69-.68A.69.69,0,0,0,39.53,0H35.39a.67.67,0,0,0-.62.39.71.71,0,0,0,.08.73l3.24,4h-2.7A.69.69,0,0,0,34.7,5.82Z" transform="translate(-17.04 0)"/><path class="cls-1" d="M29.62,35.27a.58.58,0,0,0,.19,0l.18,0,10-2.8a.7.7,0,0,0,.5-.6l2.06-22a.66.66,0,0,0-.17-.52.68.68,0,0,0-.51-.23H17.73a.66.66,0,0,0-.51.23.67.67,0,0,0-.18.52l2.07,22a.67.67,0,0,0,.5.6ZM18.48,10.5H41.13l-2,20.77L29.81,33.9l-9.38-2.63Z" transform="translate(-17.04 0)"/></svg>