<svg xmlns="http://www.w3.org/2000/svg" viewBox="0 0 27.39 28.29"><defs><style>.cls-1{fill:#11364a;}</style></defs><g id="Capa_1" data-name="Capa 1"><path class="cls-1" d="M42.89,17.65a16.12,16.12,0,0,0,.68-2.91c.5-3.73-.47-6.93-2.75-9S35.27,3,31.6,3.87a16,16,0,0,0-1.6.46,16,16,0,0,0-1.6-.46c-3.67-.86-6.95-.2-9.22,1.87s-3.25,5.27-2.75,9a16.12,16.12,0,0,0,.68,2.91,16,16,0,0,0-.68,2.9c-.5,3.74.47,6.94,2.75,9a9,9,0,0,0,6.19,2.25,13.62,13.62,0,0,0,3-.37A16.11,16.11,0,0,0,30,31a16.11,16.11,0,0,0,1.6.47,13.62,13.62,0,0,0,3,.37,9,9,0,0,0,6.19-2.25c2.28-2.06,3.25-5.26,2.75-9A16,16,0,0,0,42.89,17.65ZM20.16,6.83c1.94-1.77,4.73-2.24,7.7-1.59A21.67,21.67,0,0,0,21.63,10a22.82,22.82,0,0,0-1.87,2.34h-.25a2.5,2.5,0,0,0-1.75.71A8,8,0,0,1,20.16,6.83Zm.4,8.05a1.05,1.05,0,1,1-1-1.05A1,1,0,0,1,20.56,14.88Zm-.4,13.59c-2.15-2-2.82-5.12-2.15-8.55a22.28,22.28,0,0,0,3.62,5.34,21.85,21.85,0,0,0,6.23,4.8C24.89,30.71,22.1,30.23,20.16,28.47Zm9.85.94a19.49,19.49,0,0,1-7.3-5.14,19.94,19.94,0,0,1-4.06-6.62c0-.12.09-.25.14-.37a2.46,2.46,0,0,0,.72.11A2.52,2.52,0,0,0,22,14.88,2.49,2.49,0,0,0,21.14,13a20.3,20.3,0,0,1,1.57-2A19.46,19.46,0,0,1,30,5.89,19.59,19.59,0,0,1,37.29,11a20.07,20.07,0,0,1,4.06,6.63,18.65,18.65,0,0,1-1.69,3.49,2.55,2.55,0,0,0-.78-.13,2.51,2.51,0,0,0-2.13,3.84A19.32,19.32,0,0,1,30,29.41Zm9.92-5.89a1,1,0,1,1-1-1A1,1,0,0,1,39.93,23.52Zm-.09,4.95c-1.87,1.7-4.59,2.26-7.69,1.58a21.3,21.3,0,0,0,5.7-4.24,2.57,2.57,0,0,0,1,.22,2.51,2.51,0,0,0,2-4.05A22.81,22.81,0,0,0,42,19.93c.05.27.1.55.14.82C42.56,24,41.75,26.74,39.84,28.47Zm2.28-13.92c0,.27-.09.54-.14.82A22.56,22.56,0,0,0,32.15,5.24,12,12,0,0,1,34.62,5a7.56,7.56,0,0,1,5.22,1.86C41.75,8.56,42.56,11.3,42.12,14.55Z" transform="translate(-16.3 -3.5)"/><path class="cls-1" d="M30,10.37a5.55,5.55,0,0,0-5.71,5.37,5.3,5.3,0,0,0,2.53,4.46v1.53a.59.59,0,0,0,0,.23V24a.74.74,0,0,0,.24.55v1.56a.74.74,0,0,0,.74.73h4.44a.73.73,0,0,0,.73-.73V24.59a.75.75,0,0,0,.25-.55v-2s0-.07,0-.11V20.2a5.3,5.3,0,0,0,2.53-4.46A5.56,5.56,0,0,0,30,10.37Zm1.47,15.05h-3V24.8h3Zm.24-2.11H28.28v-.62h3.47Zm-2.23-7.44a.52.52,0,0,1,.52-.52.52.52,0,0,1,.53.52.53.53,0,0,1-.53.53A.52.52,0,0,1,29.52,15.87Zm2.63,3.26a.74.74,0,0,0-.39.65v1.45h-1V17.72a2,2,0,1,0-1.46,0v3.51h-1V19.78a.74.74,0,0,0-.39-.65,3.86,3.86,0,0,1-2.14-3.39A4.09,4.09,0,0,1,30,11.83a4.09,4.09,0,0,1,4.25,3.91A3.86,3.86,0,0,1,32.15,19.13Z" transform="translate(-16.3 -3.5)"/></g></svg>