<?xml version="1.0" encoding="utf-8"?>
<!-- Generator: Adobe Illustrator 24.1.1, SVG Export Plug-In . SVG Version: 6.00 Build 0)  -->
<svg version="1.1" xmlns="http://www.w3.org/2000/svg" xmlns:xlink="http://www.w3.org/1999/xlink" x="0px" y="0px"
	 viewBox="0 0 60 35.3" style="enable-background:new 0 0 60 35.3;" xml:space="preserve">
<style type="text/css">
	.st0{fill:#11364A;}
</style>
<g id="Capa_2">
</g>
<g id="Capa_1">
	<g>
		<path class="st0" d="M17.48,17.21c-0.59-0.13-0.86,0.03-1.05,0.61c-0.02,0.06-0.04,0.12-0.05,0.18c-0.04,0.12-0.07,0.24-0.11,0.33
			c-0.35,0.73-1.12,1.05-1.8,0.74c-0.6-0.27-1-1.07-1.03-1.97h4.03c0.14,0,0.27-0.06,0.36-0.15c0.09-0.1,0.14-0.23,0.14-0.37
			c0-0.12-0.01-0.23-0.01-0.34c-0.01-0.24-0.01-0.46-0.03-0.68c-0.14-1.48-0.78-2.52-1.86-3.01c-1.17-0.54-2.32-0.21-3.17,0.9
			c-0.81,1.06-1.09,2.42-0.84,4.16c0.15,1.06,0.54,1.84,1.18,2.37c0.54,0.45,1.17,0.69,1.79,0.69c0.32,0,0.65-0.06,0.97-0.19
			c1.04-0.42,1.74-1.44,1.89-2.72C17.89,17.5,17.73,17.27,17.48,17.21z M13.94,14.4c0.28-0.33,0.63-0.53,1-0.56
			c0.41-0.03,0.71,0.17,0.89,0.34c0.34,0.32,0.56,0.83,0.63,1.42h-3.01C13.5,15.16,13.67,14.73,13.94,14.4z"/>
		<path class="st0" d="M46.72,16.05c-0.48-0.18-0.97-0.35-1.44-0.5c-0.25-0.08-0.5-0.16-0.75-0.25c-0.15-0.05-0.35-0.17-0.38-0.55
			c-0.02-0.33,0.1-0.63,0.32-0.73c0.18-0.09,0.42-0.19,0.63-0.21c1.13-0.08,1.32,0.57,1.36,1.07c0.02,0.28,0.21,0.44,0.35,0.55
			c0.04,0.04,0.09,0.07,0.12,0.11c0.14,0.14,0.34,0.19,0.52,0.13c0.18-0.06,0.31-0.23,0.33-0.42c0.11-1.16-0.25-2.04-1.02-2.49
			c-0.95-0.55-1.95-0.57-2.9-0.06c-0.79,0.43-1.14,1.05-1.12,2.02c0.02,0.98,0.38,1.55,1.21,1.9c0.48,0.2,0.96,0.38,1.43,0.56
			c0.28,0.1,0.57,0.21,0.85,0.32c0.2,0.08,0.35,0.2,0.37,0.54c0.04,0.53-0.14,0.75-0.3,0.87c-0.39,0.31-0.82,0.41-1.22,0.29
			c-0.5-0.16-0.9-0.64-1.1-1.32c-0.05-0.16-0.16-0.52-0.5-0.65c-0.22-0.08-0.45-0.04-0.69,0.11c-0.05,0.03-0.09,0.07-0.12,0.11
			c-0.19-0.76-0.65-1.24-1.43-1.49c-0.59-0.19-1.36-0.45-2.12-0.73c-0.15-0.05-0.23-0.23-0.25-0.53c-0.01-0.11-0.01-0.47,0.2-0.57
			c0.25-0.12,0.61-0.29,0.95-0.31c0.55-0.04,0.94,0.13,1.16,1.11c0.05,0.23,0.2,0.38,0.32,0.49c0.04,0.04,0.08,0.08,0.12,0.12
			c0.13,0.15,0.33,0.2,0.52,0.15c0.19-0.06,0.32-0.22,0.35-0.41c0.15-1.15-0.2-2.04-0.99-2.51c-0.94-0.56-1.96-0.59-2.93-0.08
			c-0.75,0.4-1.13,1.08-1.11,2.04c0.02,1.18,0.66,1.68,1.2,1.89c0.32,0.13,0.64,0.25,0.95,0.38c0.46,0.18,0.92,0.36,1.38,0.54
			c0.15,0.06,0.31,0.18,0.34,0.58c0.02,0.37-0.06,0.63-0.26,0.76c-0.22,0.15-0.42,0.24-0.6,0.28c-0.44,0.09-0.87,0.02-1.19-0.21
			c-0.32-0.23-0.54-0.61-0.59-1.07c-0.04-0.28-0.15-0.48-0.33-0.6c-0.27-0.16-0.54-0.07-0.67-0.02c-0.02,0.01-0.03,0.01-0.05,0.02
			c-0.13,0.04-0.23,0.13-0.3,0.25c-0.06-0.14-0.18-0.25-0.33-0.29c-0.67-0.18-0.9,0.12-1.05,0.62c-0.17,0.58-0.41,0.94-0.73,1.14
			c-0.57,0.34-1.06,0.3-1.55-0.14c-0.45-0.4-0.68-0.97-0.71-1.78h4.08c0.14,0,0.28-0.06,0.37-0.17c0.09-0.11,0.14-0.25,0.12-0.39
			c-0.02-0.16-0.03-0.32-0.05-0.47c-0.03-0.32-0.06-0.62-0.11-0.92c-0.29-1.71-1.2-2.37-1.91-2.62c-1.17-0.42-2.21-0.12-3.02,0.87
			c0.01-0.05,0.01-0.11,0.01-0.18c0-0.09-0.01-0.16-0.03-0.22c0-0.02-0.01-0.04-0.01-0.07c-0.04-0.25-0.25-0.42-0.5-0.42
			c-0.64,0.01-1.19,0.19-1.65,0.54v-0.01c0-0.26-0.2-0.48-0.47-0.5l-0.36-0.02c-0.14-0.01-0.27,0.04-0.38,0.13
			c-0.1,0.09-0.16,0.23-0.16,0.37v3.2c-0.04-0.71-0.22-1.43-0.53-2.16c-0.43-1.03-1.41-1.69-2.49-1.7c-0.62,0-1.2,0.21-1.65,0.6
			c-0.04-0.24-0.25-0.41-0.49-0.41h-0.39c-0.21,0-0.39,0.13-0.46,0.31c-0.07-0.13-0.18-0.23-0.33-0.26
			c-0.71-0.17-0.97,0.04-1.29,0.57c-0.35,0.58-0.7,1.16-1.05,1.75l-0.04,0.06c-0.36-0.6-0.72-1.21-1.08-1.81
			c-0.46-0.77-1.07-0.69-1.39-0.58c-0.14,0.05-0.26,0.16-0.31,0.3c-0.05,0.14-0.03,0.3,0.04,0.43l1.86,3.02l-2.02,3.38
			c-0.08,0.13-0.09,0.3-0.04,0.44c0.06,0.14,0.18,0.25,0.33,0.3c0.56,0.16,1.01-0.05,1.34-0.63c0.39-0.67,0.78-1.33,1.19-2.02
			c0.02-0.03,0.04-0.06,0.06-0.1l0.1,0.16c0.38,0.65,0.78,1.33,1.16,1.99c0.29,0.5,0.63,0.64,0.94,0.64c0.18,0,0.34-0.05,0.47-0.1
			c0.01,0,0.02-0.01,0.03-0.02v2.14c0,0.28,0.22,0.5,0.5,0.5h0.44c0.28,0,0.5-0.22,0.5-0.5v-2.34c0.4,0.29,0.86,0.45,1.4,0.47
			c1.26,0.06,2.19-0.51,2.69-1.64c0.3-0.68,0.47-1.38,0.52-2.08v3.07c0,0.15,0.06,0.28,0.17,0.38c0.09,0.08,0.21,0.12,0.33,0.12
			c0.03,0,0.05,0,0.08-0.01l0.37-0.06c0.24-0.04,0.42-0.25,0.42-0.49c0-0.4,0-0.81,0-1.2c0-0.93,0-1.81,0-2.7
			c0.01-0.9,0.34-1.54,0.97-1.91c0.13-0.07,0.3-0.12,0.5-0.16c0.11-0.03,0.23-0.06,0.35-0.09c0.01,0,0.02-0.01,0.03-0.01
			c-0.34,0.59-0.54,1.31-0.6,2.19c-0.12,1.69,0.3,3.11,1.15,3.89c0.5,0.46,1.14,0.69,1.86,0.69c0.18,0,0.37-0.01,0.57-0.04
			c1.05-0.16,1.96-1.16,2.21-2.37c0.11,0.88,0.49,1.53,1.13,1.93c0.52,0.33,1.08,0.5,1.64,0.5c0.46,0,0.93-0.11,1.4-0.33
			c0.64-0.3,1.07-0.86,1.22-1.54c0.21,0.7,0.6,1.11,0.95,1.35c0.35,0.24,0.73,0.34,1.07,0.44l0.05,0.01
			c0.21,0.06,0.43,0.09,0.65,0.09c0.46,0,0.94-0.13,1.44-0.4c0.75-0.4,1.2-1.21,1.18-2.12C48.02,17.15,47.51,16.35,46.72,16.05z
			 M33.56,14.3c0.3-0.32,0.67-0.5,1.05-0.5c0,0,0,0,0,0c0.35,0,0.62,0.21,0.79,0.38c0.33,0.34,0.54,0.84,0.6,1.39h-3
			C33.05,15.09,33.24,14.64,33.56,14.3z M22.84,19.33c-0.12-0.19-0.23-0.39-0.35-0.58c-0.48-0.81-0.94-1.57-1.42-2.34
			c-0.05-0.08-0.06-0.12-0.06-0.12c0,0,0.01-0.03,0.05-0.09c0.17-0.24,0.32-0.49,0.46-0.74c0.05-0.09,0.11-0.18,0.16-0.27
			c0.26-0.43,0.53-0.86,0.79-1.3l0.35-0.58V19.33z M27.1,18.31c-0.3,0.69-0.87,1-1.57,0.84c-0.85-0.2-1.1-1.06-1.17-1.56
			c-0.03-0.21-0.05-0.43-0.07-0.65c-0.01-0.11-0.02-0.21-0.03-0.32c0-0.04-0.01-0.08-0.03-0.12c0.02-0.12,0.03-0.25,0.05-0.37
			c0.06-0.43,0.11-0.83,0.22-1.2c0.19-0.68,0.59-1.06,1.21-1.14c0.58-0.07,1,0.18,1.3,0.77C27.63,15.76,27.66,17.02,27.1,18.31z"/>
	</g>
</g>
</svg>
