<svg xmlns="http://www.w3.org/2000/svg" viewBox="0 0 29.97 29.97"><defs><style>.cls-1{fill:#11364a;}</style></defs><g id="Capa_1" data-name="Capa 1"><path class="cls-1" d="M30,32.63a2.89,2.89,0,0,0,2.06-.85L44.13,19.71a2.91,2.91,0,0,0,0-4.12L32.06,3.52a2.9,2.9,0,0,0-4.12,0L25.25,6.2h0l-9.38,9.39a2.91,2.91,0,0,0,0,4.12L27.94,31.78A2.89,2.89,0,0,0,30,32.63Zm-13.51-15a1.43,1.43,0,0,1,.42-1l8.87-8.87,2.36,2.33a2.33,2.33,0,0,0,1.34,3.21v9a2.32,2.32,0,1,0,1.48,0v-9a2.08,2.08,0,0,0,.3-.13l3.33,3.28a2.31,2.31,0,1,0,2.08-1.3,2.25,2.25,0,0,0-1,.25L32.3,12.12a2.28,2.28,0,0,0,.24-1,2.32,2.32,0,0,0-2.32-2.32,2.28,2.28,0,0,0-1,.25L26.83,6.72,29,4.56a1.45,1.45,0,0,1,2,0L43.09,16.63a1.44,1.44,0,0,1,0,2L31,30.74a1.45,1.45,0,0,1-2,0L16.91,18.66A1.42,1.42,0,0,1,16.49,17.65Z" transform="translate(-15.02 -2.66)"/></g></svg>