<svg xmlns="http://www.w3.org/2000/svg" viewBox="0 0 28.96 25.33"><defs><style>.cls-1{fill:#11364a;}</style></defs><g id="Capa_1" data-name="Capa 1"><path class="cls-1" d="M29.23,28a6.94,6.94,0,0,0,2.78.54A26.9,26.9,0,0,0,37,28a16.06,16.06,0,0,1,2.07-.3.74.74,0,0,0,.71.56h4a.73.73,0,0,0,.73-.73V13.77a.74.74,0,0,0-.73-.74h-4a.74.74,0,0,0-.73.74v.43a9.13,9.13,0,0,1-5.2-2.67l2.5-3.23.1-.17a2.23,2.23,0,0,0-.69-2.8A2,2,0,0,0,33,5.84c-.16.17-1.63,2-3.49,4.27l-1.87-.58a.74.74,0,0,0-.66.11L20.14,14.8a.75.75,0,0,0-.22.25L15.6,23.59a.73.73,0,0,0,0,.73,3.29,3.29,0,0,0,1.58,1.38l-1.05,3.68a.73.73,0,0,0,.71.93.69.69,0,0,0,.37-.1l4.39-2.53.12-.09a2.45,2.45,0,0,0,2,1,2.15,2.15,0,0,0,1.68-.72,2.27,2.27,0,0,0,1.73.72A3.27,3.27,0,0,0,29.23,28ZM40.5,14.51H43V26.8H40.5ZM39,15.68V26.24a17.6,17.6,0,0,0-2.32.32,25.37,25.37,0,0,1-4.7.54,5.44,5.44,0,0,1-2.57-.6l-.07,0A3.83,3.83,0,0,1,28,25.21a.74.74,0,0,0-.64-.37H22.46a2.93,2.93,0,0,1-1.95-.5,1.28,1.28,0,0,1-.4-1,1.53,1.53,0,0,1,.42-1.18A2.18,2.18,0,0,1,22,21.7H27a2.62,2.62,0,0,0,2-.85c1.22-1.34,1.18-3.82,1.13-4.54l2.79-3.6A10.34,10.34,0,0,0,39,15.68ZM27.12,20.22l1.43-1.84a3.19,3.19,0,0,1-.62,1.47A1.08,1.08,0,0,1,27.12,20.22Zm7-13.36c.44-.45.49-.51.92-.26s.15.69.09.89l-2.8,3.64h0l-7,9.1h-2C27.74,14.66,33.72,7.24,34.08,6.86Zm-17,17,4.05-8,6.42-4.82,1,.3c-2.85,3.52-6.17,7.65-7.18,8.91a3.2,3.2,0,0,0-1.82.8,2.92,2.92,0,0,0-.9,2.26,3.22,3.22,0,0,0,.15,1,1.59,1.59,0,0,1-.85.06A1.48,1.48,0,0,1,17.11,23.86Zm1,4.17.62-2.18a3.76,3.76,0,0,0,1-.29,3.4,3.4,0,0,0,1.37.63l-.24.27Zm5.71-.93a1,1,0,0,1-1-.67l.1-.12h1.78A.86.86,0,0,1,23.79,27.1Zm2.45-.79H27a4.94,4.94,0,0,0,.73.76,3.48,3.48,0,0,1-.49,0A1,1,0,0,1,26.24,26.31Z" transform="translate(-15.52 -4.98)"/></g></svg>