<svg xmlns="http://www.w3.org/2000/svg" viewBox="0 0 28.09 28.94"><defs><style>.cls-1{fill:#11364a;}</style></defs><g id="Capa_1" data-name="Capa 1"><path class="cls-1" d="M29.23,10c-.2.23-.4.48-.6.74-.28-.17-.56-.34-.83-.48-2-1.07-3.65-1.19-4.65-.35s-1.15,2.49-.43,4.64c.09.29.21.59.33.9-.29.15-.56.31-.83.47-1.92,1.2-2.85,2.56-2.62,3.85s1.58,2.24,3.8,2.7c.3.06.62.11.94.15q0,.49,0,1c.07,2.26.79,3.76,2,4.2a2.17,2.17,0,0,0,.76.13c1.06,0,2.27-.71,3.48-2.07.2-.23.4-.48.6-.74l.83.48a6.53,6.53,0,0,0,3,.9A2.53,2.53,0,0,0,36.68,26c1-.85,1.15-2.49.43-4.64-.1-.3-.21-.59-.33-.9.29-.15.56-.31.82-.47,1.93-1.2,2.86-2.57,2.63-3.85s-1.58-2.25-3.8-2.7c-.3-.06-.62-.11-.94-.15q0-.49,0-1c-.07-2.27-.79-3.76-2-4.2S30.74,8.35,29.23,10Zm-.32,2.34c.39.29.8.61,1.2,1-.33,0-.66.1-1,.16l-1,.19C28.38,13.23,28.65,12.78,28.91,12.38Zm4.75,4.91c-.16.59-.35,1.19-.58,1.81s-.46,1.2-.71,1.77c-.59.15-1.21.29-1.86.4s-1.28.21-1.89.27c-.42-.44-.85-.9-1.28-1.41s-.81-1-1.17-1.5c.16-.59.35-1.19.58-1.81s.46-1.21.71-1.77c.59-.15,1.21-.29,1.86-.41s1.28-.2,1.88-.26q.64.64,1.29,1.41T33.66,17.29Zm-.95-3c.54,0,1,0,1.54,0-.06.48-.14,1-.24,1.52L33.37,15Zm-5.59,7.36c-.54,0-1.05,0-1.54,0q.09-.74.24-1.53c.21.27.42.53.64.79ZM23.9,10.83a1.4,1.4,0,0,1,.93-.28A6.55,6.55,0,0,1,28,11.72a21.05,21.05,0,0,0-1.32,2.36A19.39,19.39,0,0,0,24.1,15C23.27,13,23.21,11.42,23.9,10.83Zm.53,10.68c-2.15-.29-3.53-1-3.69-1.9s.88-2.06,2.8-3.08a19.73,19.73,0,0,0,1.38,2.33A20.72,20.72,0,0,0,24.43,21.51ZM24.58,16c.45-.2.93-.38,1.44-.56-.13.31-.25.63-.36.94s-.22.64-.32,1C25.05,16.92,24.8,16.47,24.58,16Zm5.15,9.07c-1.13,1.28-2.25,1.89-3,1.62s-1.34-1.79-1.26-4c.35,0,.7,0,1.06,0,.53,0,1.08,0,1.64-.07a19,19,0,0,0,2.06,1.75C30.08,24.7,29.91,24.91,29.73,25.11Zm1.19-1.57a14.58,14.58,0,0,1-1.2-1l1-.16c.34-.06.67-.12,1-.2C31.45,22.68,31.19,23.13,30.92,23.54Zm5,1.54a1.36,1.36,0,0,1-.93.29,6.48,6.48,0,0,1-3.13-1.18,20,20,0,0,0,1.32-2.35,21,21,0,0,0,2.54-.91C36.56,22.94,36.62,24.5,35.93,25.08ZM35.4,14.41c2.15.28,3.53,1,3.69,1.9s-.88,2.06-2.8,3.07a20.47,20.47,0,0,0-1.38-2.32A20.72,20.72,0,0,0,35.4,14.41Zm-.15,5.47c-.45.2-.93.38-1.44.56.12-.31.25-.63.36-1s.22-.63.32-.95C34.78,19,35,19.45,35.25,19.88ZM32.7,9.12a1.17,1.17,0,0,1,.38.07c.85.3,1.33,1.79,1.26,4a20.4,20.4,0,0,0-2.7,0,21.53,21.53,0,0,0-2.06-1.75C30.72,10,31.87,9.12,32.7,9.12Z" transform="translate(-15.87 -3.06)"/><path class="cls-1" d="M31,16.51A1.8,1.8,0,1,0,31.36,19,1.79,1.79,0,0,0,31,16.51Z" transform="translate(-15.87 -3.06)"/><path class="cls-1" d="M43.81,15.88l-.2-2.31a.58.58,0,0,0-1.16,0c0,1.31-.33,5-1.88,6.21a.57.57,0,0,0-.09.81.55.55,0,0,0,.45.22.6.6,0,0,0,.36-.12,5.2,5.2,0,0,0,1.5-2.27A12.88,12.88,0,0,1,17,18C17,12,20.6,7.22,26,6a2.06,2.06,0,1,0-.19-1.14,12.16,12.16,0,0,0-7,4.34A13.85,13.85,0,0,0,15.87,18,14,14,0,0,0,44,18,14.45,14.45,0,0,0,43.81,15.88Zm-16-11.66a.9.9,0,1,1-.9.9A.9.9,0,0,1,27.82,4.22Z" transform="translate(-15.87 -3.06)"/></g></svg>