<svg id="Capa_1" data-name="Capa 1" xmlns="http://www.w3.org/2000/svg" viewBox="0 0 26.25 35.3"><defs><style>.cls-1{fill:#11364a;}</style></defs><path class="cls-1" d="M17.56,6.63A.68.68,0,0,0,18.25,6V4h2.6V6a.69.69,0,0,0,1.38,0V.69a.69.69,0,1,0-1.38,0V2.63h-2.6V.69a.69.69,0,1,0-1.37,0V6A.68.68,0,0,0,17.56,6.63Z" transform="translate(-16.88 0)"/><path class="cls-1" d="M31.24,6.63A.68.68,0,0,0,31.93,6V2.59l1.4,1.68a.69.69,0,0,0,1.07,0l1.28-1.61V6a.69.69,0,0,0,1.37,0V.69A.68.68,0,0,0,36.59,0a.67.67,0,0,0-.76.22l-2,2.49L31.77.25A.69.69,0,0,0,31,0a.69.69,0,0,0-.45.65V6A.67.67,0,0,0,31.24,6.63Z" transform="translate(-16.88 0)"/><path class="cls-1" d="M39.91,6.63h2.21A.68.68,0,0,0,42.81,6a.69.69,0,0,0-.69-.69H40.6V.69a.69.69,0,0,0-1.38,0V6A.68.68,0,0,0,39.91,6.63Z" transform="translate(-16.88 0)"/><path class="cls-1" d="M25.07,1.38h.83V6a.68.68,0,0,0,.69.68A.67.67,0,0,0,27.27,6V1.38h.79a.69.69,0,0,0,0-1.38h-3a.68.68,0,0,0-.68.69A.68.68,0,0,0,25.07,1.38Z" transform="translate(-16.88 0)"/><path class="cls-1" d="M17.56,9.11a.69.69,0,0,0-.5.23.68.68,0,0,0-.18.53l2.13,22a.7.7,0,0,0,.5.6l10.31,2.8.18,0,.18,0,10.31-2.8a.7.7,0,0,0,.5-.6l2.13-22a.68.68,0,0,0-.18-.53.69.69,0,0,0-.5-.23ZM39.67,31.27,30,33.9l-9.67-2.63-2-20.78H41.68Z" transform="translate(-16.88 0)"/><path class="cls-1" d="M22.64,21.36a.69.69,0,0,0,.69.63H35.22l-.56,5.92-4.85,1.33-5.25-1.52-.19-2.24a.68.68,0,0,0-.74-.62.69.69,0,0,0-.63.74l.23,2.7a.66.66,0,0,0,.49.6l5.9,1.71a.58.58,0,0,0,.19,0,.57.57,0,0,0,.18,0l5.49-1.49a.71.71,0,0,0,.5-.6l.68-7.16a.71.71,0,0,0-.18-.52.68.68,0,0,0-.51-.23H24l-.5-5.4H36.92a.69.69,0,0,0,0-1.38H22.7a.66.66,0,0,0-.51.23.67.67,0,0,0-.18.52Z" transform="translate(-16.88 0)"/></svg>