<svg id="Capa_1" data-name="Capa 1" xmlns="http://www.w3.org/2000/svg" viewBox="0 0 25.47 35.3"><defs><style>.cls-1{fill:#11364a;}</style></defs><path class="cls-1" d="M22.94,15.16H35.42l-.94,11.49-4.62,1.82-4.71-1.25-.29-2.15a.69.69,0,1,0-1.36.18l.35,2.61a.67.67,0,0,0,.5.57l5.38,1.43.17,0a.7.7,0,0,0,.25-.05l5.23-2.06a.67.67,0,0,0,.44-.58l1-12.66a.73.73,0,0,0-.18-.53.7.7,0,0,0-.51-.22H22.94a.69.69,0,0,0,0,1.38Z" transform="translate(-17.07 0)"/><path class="cls-1" d="M23.19,6.5h4.17a.68.68,0,0,0,.69-.68V.69A.69.69,0,0,0,27.36,0a.68.68,0,0,0-.68.69V5.13H23.19a.69.69,0,0,0-.69.69A.68.68,0,0,0,23.19,6.5Z" transform="translate(-17.07 0)"/><path class="cls-1" d="M31.09,5.82a.68.68,0,0,0,.69.68h4.14a.68.68,0,0,0,.53-1.12l-3.24-4h2.71A.67.67,0,0,0,36.6.69.68.68,0,0,0,35.92,0H31.78a.67.67,0,0,0-.62.39.67.67,0,0,0,.08.73l3.24,4h-2.7A.69.69,0,0,0,31.09,5.82Z" transform="translate(-17.07 0)"/><path class="cls-1" d="M19.14,31.87a.68.68,0,0,0,.49.6l10,2.8a.58.58,0,0,0,.19,0l.18,0,10-2.8a.71.71,0,0,0,.5-.6l2.06-22a.67.67,0,0,0-.18-.52.66.66,0,0,0-.51-.23H17.76a.68.68,0,0,0-.51.23.71.71,0,0,0-.18.52Zm22-21.37-2,20.77L29.81,33.9l-9.35-2.63L18.51,10.5Z" transform="translate(-17.07 0)"/></svg>