<svg xmlns="http://www.w3.org/2000/svg" viewBox="0 0 27.9 27.09"><defs><style>.cls-1{fill:#11364a;}</style></defs><g id="Capa_1" data-name="Capa 1"><path class="cls-1" d="M26.79,13.49l8.35-7.11V18.44L27,24.67a.76.76,0,0,0-.29.6v.23a.76.76,0,0,0,.29.61l6.53,4.95a.61.61,0,0,0,.39.13.62.62,0,0,0,.41-.14l9.36-7.27a.75.75,0,0,0,.28-.6V15a.69.69,0,1,0-1.38,0V22.8L33.9,29.54l-5.48-4.15,7.81-6a.78.78,0,0,0,.29-.61v-14a.74.74,0,0,0-.39-.67.65.65,0,0,0-.73.08l-9,7.71-9.2-7.71a.64.64,0,0,0-.72-.08.74.74,0,0,0-.39.67V18.67a.69.69,0,1,0,1.38,0V6.37l8.51,7.13A.64.64,0,0,0,26.79,13.49Z" transform="translate(-16.05 -4.1)"/><path class="cls-1" d="M43.26,9.29A.73.73,0,0,0,44,8.54V4.94a.69.69,0,1,0-1.38,0v3.6A.73.73,0,0,0,43.26,9.29Z" transform="translate(-16.05 -4.1)"/></g></svg>