<svg xmlns="http://www.w3.org/2000/svg" viewBox="0 0 26.59 29.64"><defs><style>.cls-1{fill:#11364a;}</style></defs><g id="Capa_1" data-name="Capa 1"><path class="cls-1" d="M42.11,6.11A.6.6,0,0,0,42,6c-3.06-3.11-11.6-3.15-12-3.15h-.12c-.36,0-8.9,0-12,3.15a.6.6,0,0,0-.09.13c-.09.15-2.19,3.86-.57,12.37.67,3.57,3,7.12,6.81,10.25a30.27,30.27,0,0,0,5.53,3.67.58.58,0,0,0,.28.07h.12a.58.58,0,0,0,.28-.07,30.27,30.27,0,0,0,5.53-3.67c3.78-3.13,6.14-6.68,6.81-10.25C44.3,10,42.2,6.26,42.11,6.11ZM41.4,18.24c-.78,4.12-3.88,7.42-6.34,9.46A31.4,31.4,0,0,1,30,31.11a31.4,31.4,0,0,1-5.06-3.41c-2.46-2-5.56-5.34-6.34-9.46-1.4-7.38.14-10.91.38-11.41,2.74-2.66,10.88-2.69,11-2.69h.12c.08,0,8.22,0,11,2.69C41.27,7.33,42.81,10.8,41.4,18.24Z" transform="translate(-16.71 -2.83)"/><path class="cls-1" d="M33.28,10a13,13,0,0,1-2.56-3.46.71.71,0,0,0-1.25,0A12.76,12.76,0,0,1,26.91,10a8.44,8.44,0,0,0-2.31,3.64,11.64,11.64,0,0,0-.42,5.76c.75,4.4,5,6.89,5.18,7l0,0v1.62a.65.65,0,0,0,.66.66h.07a.66.66,0,0,0,.66-.66V26.44l0,0c.18-.11,4.43-2.6,5.18-7a11.64,11.64,0,0,0-.42-5.76A8.44,8.44,0,0,0,33.28,10ZM29.4,24.87c-1.12-.81-3.45-2.81-3.94-5.67-.64-3.72.75-6.86,2.3-8.19A10.46,10.46,0,0,0,29.4,9.17Zm5.33-5.67c-.49,2.86-2.82,4.86-3.94,5.67V9.17A10.46,10.46,0,0,0,32.43,11C34,12.34,35.37,15.48,34.73,19.2Z" transform="translate(-16.71 -2.83)"/></g></svg>