<?xml version="1.0" encoding="utf-8"?>
<!-- Generator: Adobe Illustrator 24.1.1, SVG Export Plug-In . SVG Version: 6.00 Build 0)  -->
<svg version="1.1" xmlns="http://www.w3.org/2000/svg" xmlns:xlink="http://www.w3.org/1999/xlink" x="0px" y="0px"
	 viewBox="0 0 60 35.3" style="enable-background:new 0 0 60 35.3;" xml:space="preserve">
<style type="text/css">
	.st0{fill:#11364A;}
</style>
<g id="Capa_2">
</g>
<g id="Capa_1">
	<g>
		<path class="st0" d="M33.49,22.48c-3.01,0-4.09-1.16-4.09-2.25c0-0.39-0.32-0.71-0.71-0.71c-0.39,0-0.71,0.32-0.71,0.71
			c0,0.91,0.43,1.8,1.17,2.43c0.96,0.82,2.42,1.24,4.34,1.24c1.94,0,3.41-0.34,4.38-1c1.1-0.75,1.33-1.75,1.33-2.45
			c0-1.57-1.52-3.53-5.82-3.87c-2.98-0.24-3.65-1.38-3.65-1.76c0-0.02,0.04-1.91,3.77-1.91c3.27,0,3.64,1.62,3.66,1.69l0-0.01
			l1.4-0.23c-0.02-0.12-0.52-2.87-5.06-2.87c-5.13,0-5.19,3.19-5.19,3.33c0,0.29,0.14,2.8,4.96,3.18c3.11,0.25,4.51,1.41,4.51,2.45
			C37.77,22.21,35.09,22.48,33.49,22.48z"/>
		<path class="st0" d="M44.05,10.2c0-0.01,0-0.03,0-0.04c0-0.01,0-0.02,0-0.03c0-0.01,0-0.02-0.01-0.03c0-0.01-0.01-0.02-0.01-0.04
			c0-0.01,0-0.02-0.01-0.03c0-0.01-0.01-0.03-0.01-0.04c0-0.01-0.01-0.02-0.01-0.03c0-0.01-0.01-0.02-0.02-0.04
			c0-0.01-0.01-0.02-0.01-0.03c-0.01-0.01-0.01-0.02-0.02-0.03c-0.01-0.01-0.01-0.02-0.02-0.03c-0.01-0.01-0.01-0.02-0.02-0.03
			c-0.01-0.01-0.02-0.02-0.02-0.03c-0.01-0.01-0.01-0.01-0.02-0.02c-0.01-0.01-0.02-0.02-0.03-0.03c-0.01-0.01-0.01-0.01-0.02-0.02
			c-0.01-0.01-0.02-0.02-0.03-0.03c-0.01-0.01-0.02-0.01-0.03-0.02c-0.01-0.01-0.02-0.01-0.03-0.02c-0.01-0.01-0.02-0.02-0.04-0.02
			c-0.01,0-0.01-0.01-0.02-0.01L31.33,2.45c-0.81-0.47-1.81-0.47-2.62,0L17.25,9.05c-0.81,0.47-1.31,1.34-1.31,2.27v12.41
			c0,0.93,0.5,1.8,1.31,2.27c4.96,2.87,5.12,2.87,5.37,2.87c2.55,0,3.32-2.2,3.37-3.37c0-0.01,0-0.02,0-0.03V12.2
			c0-0.39-0.32-0.71-0.71-0.71c-0.39,0-0.71,0.32-0.71,0.71v13.25c-0.02,0.26-0.19,1.92-1.83,1.99c-0.39-0.18-1.81-0.96-4.78-2.68
			c-0.37-0.21-0.6-0.61-0.6-1.04V11.32c0-0.43,0.23-0.82,0.6-1.04l11.46-6.61c0.37-0.21,0.83-0.21,1.2,0l12.01,6.95v13.11
			c0,0.42-0.22,0.81-0.58,1.03l-11.46,6.84c-0.37,0.22-0.83,0.23-1.21,0.01l-2.7-1.54c-0.34-0.19-0.78-0.08-0.97,0.27
			c-0.19,0.34-0.08,0.78,0.27,0.97l2.7,1.54c0.4,0.23,0.85,0.34,1.3,0.34c0.46,0,0.93-0.12,1.34-0.37l11.46-6.84
			c0.79-0.47,1.28-1.33,1.28-2.25V10.22C44.06,10.21,44.05,10.21,44.05,10.2z"/>
	</g>
</g>
</svg>
