<svg xmlns="http://www.w3.org/2000/svg" viewBox="0 0 29.16 22.08"><defs><style>.cls-1{fill:#11364a;}</style></defs><g id="Capa_1" data-name="Capa 1"><path class="cls-1" d="M43.85,6.61H16.15a.73.73,0,0,0-.73.73V28a.73.73,0,0,0,.73.73h27.7a.73.73,0,0,0,.73-.73V7.34A.73.73,0,0,0,43.85,6.61Zm-.73,20.62H16.88V13H43.12Zm0-15.66H16.88V8.07H43.12Z" transform="translate(-15.42 -6.61)"/><path class="cls-1" d="M19,16h9.33a.73.73,0,1,0,0-1.46H19A.73.73,0,1,0,19,16Z" transform="translate(-15.42 -6.61)"/><path class="cls-1" d="M19,19h9.33a.73.73,0,0,0,0-1.46H19A.73.73,0,1,0,19,19Z" transform="translate(-15.42 -6.61)"/><path class="cls-1" d="M19,21.91h9.33a.73.73,0,0,0,0-1.46H19a.73.73,0,0,0,0,1.46Z" transform="translate(-15.42 -6.61)"/><path class="cls-1" d="M19,24.85h9.33a.73.73,0,1,0,0-1.46H19a.73.73,0,1,0,0,1.46Z" transform="translate(-15.42 -6.61)"/><path class="cls-1" d="M18.78,10.45h1.68a.73.73,0,1,0,0-1.46H18.78a.73.73,0,1,0,0,1.46Z" transform="translate(-15.42 -6.61)"/><path class="cls-1" d="M22.9,10.45h1.68a.73.73,0,1,0,0-1.46H22.9a.73.73,0,0,0,0,1.46Z" transform="translate(-15.42 -6.61)"/><path class="cls-1" d="M27,10.45H28.7A.73.73,0,0,0,28.7,9H27a.73.73,0,0,0,0,1.46Z" transform="translate(-15.42 -6.61)"/><path class="cls-1" d="M30.59,24.94a.06.06,0,0,1,0,0,0,0,0,0,0,0,0v.14l0,0,0,0,0,0,0,0,0,0,0,0h0l0,0,0,0,0,0,0,0,0,0,0,0H41.16l0,0,0,0,0,0,0,0,0,0,0,0h0s0,0,0,0l0,0,0,0,0,0v0s0,0,0,0l0,0V25a0,0,0,0,1,0,0v-.14h0V15.3h0v-.14a.06.06,0,0,1,0,0V15l0,0,0,0v0a.05.05,0,0,1,0,0l0,0,0,0,0-.05h0l0,0,0,0,0,0,0,0h0l0,0h0l0,0h-10l0,0h0l0,0h0l0,0,0,0,0,0,0,0h0l0,.05,0,0,0,0,0,0,0,0,0,0v.13a.06.06,0,0,0,0,0,.08.08,0,0,1,0,0v0s0,0,0,.07v9.54s0,0,0,.07Zm2.49-.83,3-3,3,3Zm7-1-3-3,3-3Zm-1-7-3,3-3-3Zm-7,1,3,3-3,3Z" transform="translate(-15.42 -6.61)"/></g></svg>