<svg xmlns="http://www.w3.org/2000/svg" viewBox="0 0 28.68 28.68"><defs><style>.cls-1{fill:#11364a;}</style></defs><g id="Capa_1" data-name="Capa 1"><path class="cls-1" d="M37.57,3.31H22.43a6.78,6.78,0,0,0-6.77,6.77V25.22A6.78,6.78,0,0,0,22.43,32H37.57a6.78,6.78,0,0,0,6.77-6.77V10.08A6.78,6.78,0,0,0,37.57,3.31ZM42.7,25.22a5.13,5.13,0,0,1-5.13,5.13H22.43a5.13,5.13,0,0,1-5.13-5.13V10.08A5.13,5.13,0,0,1,22.43,5H37.57a5.13,5.13,0,0,1,5.13,5.13Z" transform="translate(-15.66 -3.31)"/><path class="cls-1" d="M26.13,11.2H23.48a.82.82,0,0,0-.82.82V22.11a.82.82,0,0,0,1.64,0v-3h1.82A5,5,0,0,0,29.55,18a3.64,3.64,0,0,0,1.12-2.8,3.71,3.71,0,0,0-1.11-2.82A5.21,5.21,0,0,0,26.13,11.2Zm2.32,5.59a3.37,3.37,0,0,1-2.24.66H24.3V12.84h1.88a3.46,3.46,0,0,1,2.25.74A2.08,2.08,0,0,1,29,15.2,2.06,2.06,0,0,1,28.45,16.79Z" transform="translate(-15.66 -3.31)"/><path class="cls-1" d="M35.31,18l-.48-.25c-1-.51-1.38-1.09-1.41-1.47,0-.08,0-.34.34-.62,1.05-.8,2.71.05,2.74.07a.82.82,0,0,0,.78-1.44c-.11-.06-2.61-1.38-4.51.06a2.32,2.32,0,0,0-1,2.07,3.78,3.78,0,0,0,2.28,2.79l.49.25a6,6,0,0,1,1.5.91c.09.1.21.24,0,.79-.05.17-.21.3-.47.41a4.58,4.58,0,0,1-3.46-.5.82.82,0,0,0-.84,1.4,6.54,6.54,0,0,0,3.28.89,4.61,4.61,0,0,0,1.61-.26,2.29,2.29,0,0,0,1.45-1.46C38.31,19.54,36.92,18.83,35.31,18Z" transform="translate(-15.66 -3.31)"/></g></svg>