<svg xmlns="http://www.w3.org/2000/svg" viewBox="0 0 29.08 26.14"><defs><style>.cls-1{fill:#11364a;}</style></defs><g id="Capa_1" data-name="Capa 1"><path class="cls-1" d="M40.13,13.28a14.44,14.44,0,0,0-1.4-.51c.12-.5.22-1,.3-1.46.49-3.06-.07-5.25-1.59-6.15s-3.7-.36-6.16,1.53c-.38.29-.76.61-1.14.95-.37-.35-.74-.68-1.11-1-2.41-2-4.59-2.56-6.12-1.7s-2.16,3-1.76,6.1c.06.48.15,1,.26,1.47-.49.14-1,.3-1.41.47-2.9,1.11-4.51,2.69-4.54,4.45S17,20.83,19.87,22c.45.18.91.35,1.4.51-.12.5-.22,1-.3,1.45-.49,3.07.07,5.26,1.59,6.16a3.12,3.12,0,0,0,1.61.42,7.93,7.93,0,0,0,4.55-2c.38-.29.76-.61,1.14-1,.37.36.74.68,1.11,1a7.81,7.81,0,0,0,4.6,2.09,3.09,3.09,0,0,0,1.52-.38c1.54-.86,2.16-3,1.76-6.11-.06-.47-.15-1-.26-1.46.49-.14,1-.3,1.41-.47,2.9-1.11,4.51-2.69,4.54-4.45S43,14.47,40.13,13.28ZM32.06,7.71A6.84,6.84,0,0,1,35.81,6a2,2,0,0,1,1,.24c1,.61,1.37,2.37,1,4.85-.07.42-.15.86-.26,1.3a28.34,28.34,0,0,0-4-.72A28.15,28.15,0,0,0,31,8.56C31.38,8.25,31.72,8,32.06,7.71Zm-7.45,13q.43.8.9,1.53a25.71,25.71,0,0,1-2.67-.54,25.08,25.08,0,0,1,.94-2.56C24,19.62,24.31,20.14,24.61,20.66ZM23,13.45A26.37,26.37,0,0,1,25.64,13c-.33.49-.64,1-.95,1.5s-.59,1-.87,1.55A24.49,24.49,0,0,1,23,13.45Zm1.52,4.12q.6-1.21,1.32-2.43c.49-.81,1-1.58,1.51-2.32.75-.05,1.51-.07,2.28-.07h.49q1.41,0,2.76.15c.5.75,1,1.54,1.44,2.36s.88,1.65,1.26,2.47c-.4.8-.84,1.62-1.32,2.43s-1,1.58-1.51,2.31c-.9.06-1.83.09-2.77.07s-1.86-.06-2.76-.14c-.5-.75-1-1.54-1.44-2.36S24.85,18.39,24.47,17.57Zm10.84,3.24c.3-.51.59-1,.87-1.55a24.64,24.64,0,0,1,.87,2.59c-.85.19-1.75.35-2.69.47C34.69,21.83,35,21.33,35.31,20.81Zm.08-6.18c-.29-.52-.59-1-.9-1.52a25.71,25.71,0,0,1,2.67.54,25.08,25.08,0,0,1-.94,2.56C36,15.68,35.69,15.16,35.39,14.63Zm-3.53-3.09c-.58,0-1.18-.06-1.77-.07s-1.2,0-1.78,0a26.34,26.34,0,0,1,1.8-2.05A25,25,0,0,1,31.86,11.54ZM23.53,6.08a1.8,1.8,0,0,1,.91-.22,6.67,6.67,0,0,1,3.78,1.8q.5.4,1,.87a28.75,28.75,0,0,0-2.6,3.06,29.34,29.34,0,0,0-4,.61c-.1-.44-.17-.88-.23-1.3C22.1,8.41,22.5,6.65,23.53,6.08ZM21.61,21.29a12.81,12.81,0,0,1-1.24-.46c-2.32-1-3.64-2.18-3.62-3.37s1.36-2.37,3.71-3.27c.4-.15.82-.29,1.25-.42a29.26,29.26,0,0,0,1.35,3.78A29.25,29.25,0,0,0,21.61,21.29Zm6.33,6.3c-2,1.52-3.71,2.05-4.73,1.45s-1.37-2.38-1-4.85c.07-.43.15-.86.26-1.3a28.34,28.34,0,0,0,3.95.72A29.11,29.11,0,0,0,29,26.74C28.62,27,28.28,27.33,27.94,27.59Zm.2-3.83c.58,0,1.18.06,1.77.07h.51l1.27,0a26.14,26.14,0,0,1-1.8,2A24.77,24.77,0,0,1,28.14,23.76Zm8.33,5.46c-1,.58-2.74,0-4.69-1.58-.33-.27-.66-.56-1-.88a29.63,29.63,0,0,0,2.6-3.05,29.34,29.34,0,0,0,4-.61c.1.44.17.88.23,1.3C37.9,26.89,37.5,28.64,36.47,29.22Zm3.07-8.12c-.4.15-.82.3-1.25.42a28.62,28.62,0,0,0-1.35-3.77A29.37,29.37,0,0,0,38.39,14c.44.15.85.3,1.24.46,2.32,1,3.64,2.19,3.62,3.37S41.89,20.21,39.54,21.1Z" transform="translate(-15.46 -4.58)"/><circle class="cls-1" cx="30" cy="17.65" r="2.52" transform="translate(-4.69 42.09) rotate(-86.94)"/></g></svg>