<svg xmlns="http://www.w3.org/2000/svg" viewBox="0 0 28.57 26.86"><defs><style>.cls-1{fill:#11364a;}</style></defs><g id="Capa_1" data-name="Capa 1"><path class="cls-1" d="M23.74,22.47a2.16,2.16,0,1,0,1.7-.82,2.06,2.06,0,0,0-.62.09,12.7,12.7,0,0,1-.89-12.07C25.23,7,27.42,5.4,29.66,5.4h0a5,5,0,0,1,4.21,2.3,8.2,8.2,0,0,1,1.18,2.45.65.65,0,0,0,1.26-.33A9.75,9.75,0,0,0,35,7,6.32,6.32,0,0,0,29.67,4.1h0c-2.73,0-5.37,1.92-6.88,5a12.85,12.85,0,0,0-1.2,7A15.42,15.42,0,0,0,23.74,22.47Z" transform="translate(-15.71 -4.1)"/><path class="cls-1" d="M36.71,23a2,2,0,1,0-2.79-.75,1.94,1.94,0,0,0,.35.45,12.79,12.79,0,0,1-10.6,7c-2.79.09-5.09-1-6-2.88a5.82,5.82,0,0,1-.13-5.07,7.6,7.6,0,0,1,1.41-2.13.65.65,0,0,0-.89-.94,8.28,8.28,0,0,0-1.68,2.51,7.1,7.1,0,0,0,.13,6.2C17.6,29.6,20.21,31,23.36,31h.36a13.18,13.18,0,0,0,7-2.4,15.5,15.5,0,0,0,4.73-5.34A2,2,0,0,0,36.71,23Z" transform="translate(-15.71 -4.1)"/><path class="cls-1" d="M44.28,23.47a8.93,8.93,0,0,0-1.29-4,13.26,13.26,0,0,0-5.62-5.06,15.79,15.79,0,0,0-7.29-1.53,1.9,1.9,0,0,0-.81-.9A2,2,0,1,0,30,14.6a2.39,2.39,0,0,0,.19-.48,13,13,0,0,1,11.7,6c1.38,2.35,1.49,4.72.29,6.34A6.19,6.19,0,0,1,37.57,29a7.91,7.91,0,0,1-2.7-.2A.65.65,0,0,0,34.51,30a9.3,9.3,0,0,0,2.31.28,8.14,8.14,0,0,0,6.39-3.09A5.66,5.66,0,0,0,44.28,23.47Z" transform="translate(-15.71 -4.1)"/></g></svg>