<svg xmlns="http://www.w3.org/2000/svg" viewBox="0 0 30.86 30.51"><defs><style>.cls-1{fill:#11364a;}</style></defs><g id="Capa_1" data-name="Capa 1"><path class="cls-1" d="M45.42,9.13a.74.74,0,0,0-.83-.63l-.94.13a.73.73,0,0,0-.6.52l-2.42,8-1.92-.71,2-7.48a.74.74,0,0,0-.2-.72L38.65,6.43l.77-3.12a.72.72,0,0,0-.54-.89A.73.73,0,0,0,38,3l-.87,3.54a.73.73,0,0,0,.2.71L39.14,9l-2,7.72a.71.71,0,0,0,0,.25,2.91,2.91,0,0,0-.35.18,4.2,4.2,0,0,0,.52-1.91,1.31,1.31,0,0,0-.41-.94c-1-.85-1.78-.88-3.4-.12A19.1,19.1,0,0,0,29.83,17a6.57,6.57,0,0,0,1.48-3.5,1.28,1.28,0,0,0-.41-.94c-.95-.85-1.77-.88-3.4-.12s-4.6,3.77-5.07,4.23l-7.59,6.1a.74.74,0,1,0,.93,1.15l6.4-5.15.12.27a3.24,3.24,0,0,0,2.32,1.79h.09a2.33,2.33,0,0,0,.94-.24l-10.8,8.68a.75.75,0,0,0-.11,1,.74.74,0,0,0,.58.27.74.74,0,0,0,.46-.16l12.36-9.94a1.59,1.59,0,0,0,.12.27,3.25,3.25,0,0,0,2.31,1.79h.1c1.54,0,3.94-2.46,4.45-3-.08.33-.16.69-.24,1.07-1.47,1.18-3.11,2.81-3.44,3.14l-9.8,7.87a.75.75,0,0,0-.11,1,.74.74,0,0,0,.58.27.74.74,0,0,0,.46-.16l8.61-6.92a2,2,0,0,0,.11.26,3.26,3.26,0,0,0,2.32,1.8h.09a2.26,2.26,0,0,0,.7-.13.7.7,0,0,0,.31.28.64.64,0,0,0,.33.08.71.71,0,0,0,.44-.15s.4-.3.93-.76a17.82,17.82,0,0,1-4.24,4.39.72.72,0,0,0-.12,1,.7.7,0,0,0,.57.28.7.7,0,0,0,.46-.16c5.38-4.25,5.56-6.88,5.49-7.6,1.91-2.08,2.86-3.92,2.81-5.47a3.32,3.32,0,0,0-.15-.89.52.52,0,0,0,.21-.07.75.75,0,0,0,.38-.44L44.32,10l.47-.07A.73.73,0,0,0,45.42,9.13Zm-11.09,17a1.61,1.61,0,0,1-.62.25h0a2,2,0,0,1-1.1-1,.8.8,0,0,1-.09-.7c.45-.45,1.23-1.21,2.05-1.94C34.43,24,34.36,25.26,34.33,26.16ZM28.16,16.7a8.92,8.92,0,0,1-3.45,2.63h0a2,2,0,0,1-1.11-1,.79.79,0,0,1-.08-.7,27.59,27.59,0,0,1,4.61-3.89c1.18-.56,1.4-.46,1.72-.18A6.69,6.69,0,0,1,28.16,16.7Zm6,1.72a9.18,9.18,0,0,1-3.45,2.63h0a1.93,1.93,0,0,1-1.11-1,.79.79,0,0,1-.08-.7,27.94,27.94,0,0,1,4.6-3.89c1.18-.56,1.41-.47,1.72-.19A6.66,6.66,0,0,1,34.12,18.42Zm1.7,7.34c.14-2.78.51-6.06,1.09-6.84a2,2,0,0,1,1.68-.84,2.7,2.7,0,0,1,.36,0,2,2,0,0,1,.95,1.61C40,21.63,37.58,24.19,35.82,25.76Z" transform="translate(-14.57 -2.39)"/></g></svg>