<svg xmlns="http://www.w3.org/2000/svg" viewBox="0 0 28.48 31.33"><defs><style>.cls-1{fill:#11364a;}</style></defs><g id="Capa_1" data-name="Capa 1"><path class="cls-1" d="M44.24,10.23h0a.13.13,0,0,0,0-.06v0l0-.07h0l0-.07h0l0-.05,0,0a.12.12,0,0,0-.05-.05h0L44,9.8h0l-.06,0h0L30.41,2.07h0l-.06,0h0l-.07,0h-.34l-.06,0h0l-.07,0h0L16.1,9.74h0l-.06,0h0l-.06,0h0l0,.06v0a.1.1,0,0,0,0,.05h0l0,.07h0l0,.07v0a.13.13,0,0,0,0,.06h0v14.9h0v.08h0a.15.15,0,0,0,0,.07h0l0,.08h0s0,0,0,0h0l0,0s0,0,0,0l0,0,0,0,0,0,0,0,0,0,0,0h0l13.69,7.54h0l0,0h.08l.07,0h.33l0,0,0,0L43.91,25.7h0a.71.71,0,0,0,.14-.1h0l0-.06a.18.18,0,0,0,0-.07h0a.16.16,0,0,0,0-.07h0a.14.14,0,0,0,0-.06v0a.77.77,0,0,0,0-.15h0V10.23ZM30.73,3.73l11.54,6.56-4.22,2.29L31,8.76a.62.62,0,0,0-.23-.07Zm-1.28,0V8.6L22.2,12.67l-4.46-2.38ZM17,11.38l4.52,2.41v7.89L17,24.07ZM29.45,31.59l-11.7-6.44L22.2,22.8l7.25,3.93Zm0-6.32-6.6-3.58V14.47L29.45,18Zm.64-8.39-6.55-3.49,6.59-3.7a.61.61,0,0,0,.22.2l6.35,3.42Zm7.32-2.5v7.14l-6.68,3.73V18Zm-6.68,17.2V26.72L38,22.63l4.26,2.49ZM43,24l-4.27-2.5V13.69L43,11.39Z" transform="translate(-15.76 -1.98)"/></g></svg>