<svg xmlns="http://www.w3.org/2000/svg" viewBox="0 0 29.97 29.97"><defs><style>.cls-1{fill:#11364a;}</style></defs><g id="Capa_1" data-name="Capa 1"><path class="cls-1" d="M30,2.67a15,15,0,1,0,15,15A15,15,0,0,0,30,2.67ZM40.72,13a10,10,0,0,1-.49,2.15,5.2,5.2,0,0,0-1.42-2.55,3.38,3.38,0,0,1-1.24-2.74,1.34,1.34,0,0,1,.79-1.1.67.67,0,0,1,.28-.06,1.21,1.21,0,0,1,.63.21C40,9.44,40.82,10.78,40.72,13ZM30,4.05a13.55,13.55,0,0,1,8.86,3.3,2,2,0,0,0-1.1.19,2.74,2.74,0,0,0-1.57,2.18,4.73,4.73,0,0,0,1.72,4c.86.73,1.63,3.29.94,5.37-.71,1.83-1.53,3.82-2.32,5.68L32.4,12.14h1.21a.7.7,0,1,0,0-1.39H26a.7.7,0,1,0,0,1.39h1.23l2,5.5L26.59,24l-4.06-11.9h1a.7.7,0,0,0,0-1.39H18.29A13.59,13.59,0,0,1,30,4.05ZM16.41,17.65a13.46,13.46,0,0,1,1.35-5.91L24.28,30A13.62,13.62,0,0,1,16.41,17.65Zm3-5.51h1.69l4.62,13.57a.72.72,0,0,0,.12.21L25,27.86ZM30,31.24a13.66,13.66,0,0,1-4.72-.84.71.71,0,0,0,.31-.35L30,19.58l4,11.08A13.58,13.58,0,0,1,30,31.24Zm4.76-2.44-6-16.66h2.2L35.7,26.67C35.36,27.44,35.05,28.16,34.76,28.8Zm1,1.16,1.07-2.4a.7.7,0,0,0,.35-.82c.91-2.1,2-4.69,2.93-7.09l0-.09v0a28.54,28.54,0,0,0,2-6.42,9.65,9.65,0,0,0-.1-1.81A13.6,13.6,0,0,1,35.76,30Z" transform="translate(-15.02 -2.67)"/></g></svg>