<svg xmlns="http://www.w3.org/2000/svg" viewBox="0 0 25.41 25.41"><defs><style>.cls-1{fill:#11364a;}</style></defs><g id="Capa_1" data-name="Capa 1"><path class="cls-1" d="M36.7,5H23.3a6,6,0,0,0-6,6V24.35a6,6,0,0,0,6,6H36.7a6,6,0,0,0,6-6V10.94A6,6,0,0,0,36.7,5Zm4.55,19.4A4.55,4.55,0,0,1,36.7,28.9H23.3a4.55,4.55,0,0,1-4.55-4.55V10.94A4.55,4.55,0,0,1,23.3,6.4H36.7a4.55,4.55,0,0,1,4.55,4.54Z" transform="translate(-17.3 -4.95)"/><path class="cls-1" d="M36.38,11.42a.72.72,0,0,0-.72.72v2a4.28,4.28,0,0,0-4.33,2.28,4.39,4.39,0,0,0,.55,5.06,3.94,3.94,0,0,0,2.81,1.21,4,4,0,0,0,2.1-.6.75.75,0,0,0,.32-.61V12.14A.72.72,0,0,0,36.38,11.42ZM35.66,21a2.42,2.42,0,0,1-2.76-.6,3,3,0,0,1-.28-3.35,2.75,2.75,0,0,1,2.58-1.52l.46,0Z" transform="translate(-17.3 -4.95)"/><path class="cls-1" d="M27,16.81l2.42-4.31a.72.72,0,0,0-.28-1,.71.71,0,0,0-1,.28l-2,3.53-2-3.53a.73.73,0,0,0-1.27.7l2.39,4.32L22.66,21.6a.72.72,0,0,0,.63,1.08.74.74,0,0,0,.63-.37l2.25-4,2.21,4a.74.74,0,0,0,.64.38.72.72,0,0,0,.63-1.08Z" transform="translate(-17.3 -4.95)"/></g></svg>